<mxfile host="app.diagrams.net" modified="2021-06-08T06:03:38.325Z" agent="5.0 (Macintosh; Intel Mac OS X 10_15_7) AppleWebKit/537.36 (KHTML, like Gecko) Chrome/86.0.4240.193 Safari/537.36" etag="C_W5AbK8I5hxDreMjOQs" version="14.7.6" type="github">
  <diagram id="uYfKUoXyZ9rEXTvJIFga" name="Page-1">
    <mxGraphModel dx="1773" dy="539" grid="1" gridSize="10" guides="1" tooltips="1" connect="1" arrows="1" fold="1" page="1" pageScale="1" pageWidth="827" pageHeight="1169" math="0" shadow="0">
      <root>
        <mxCell id="0" />
        <mxCell id="1" parent="0" />
        <mxCell id="MhhA_x5xzs-FYC7zyUvU-30" value="" style="rounded=1;whiteSpace=wrap;html=1;fillColor=#d5e8d4;strokeColor=#82b366;" vertex="1" parent="1">
          <mxGeometry x="-160" y="440" width="860" height="160" as="geometry" />
        </mxCell>
        <mxCell id="MhhA_x5xzs-FYC7zyUvU-4" style="edgeStyle=orthogonalEdgeStyle;rounded=0;orthogonalLoop=1;jettySize=auto;html=1;exitX=1;exitY=0.25;exitDx=0;exitDy=0;entryX=0;entryY=0.25;entryDx=0;entryDy=0;" edge="1" parent="1" source="MhhA_x5xzs-FYC7zyUvU-1" target="MhhA_x5xzs-FYC7zyUvU-2">
          <mxGeometry relative="1" as="geometry" />
        </mxCell>
        <mxCell id="MhhA_x5xzs-FYC7zyUvU-1" value="描述数据" style="rounded=1;whiteSpace=wrap;html=1;fillColor=#dae8fc;strokeColor=#6c8ebf;" vertex="1" parent="1">
          <mxGeometry x="-130" y="500" width="100" height="60" as="geometry" />
        </mxCell>
        <mxCell id="MhhA_x5xzs-FYC7zyUvU-5" style="edgeStyle=orthogonalEdgeStyle;rounded=0;orthogonalLoop=1;jettySize=auto;html=1;exitX=1;exitY=0.25;exitDx=0;exitDy=0;entryX=0;entryY=0.25;entryDx=0;entryDy=0;" edge="1" parent="1" source="MhhA_x5xzs-FYC7zyUvU-2" target="MhhA_x5xzs-FYC7zyUvU-3">
          <mxGeometry relative="1" as="geometry" />
        </mxCell>
        <mxCell id="MhhA_x5xzs-FYC7zyUvU-7" style="edgeStyle=orthogonalEdgeStyle;rounded=0;orthogonalLoop=1;jettySize=auto;html=1;exitX=0;exitY=0.75;exitDx=0;exitDy=0;entryX=1;entryY=0.75;entryDx=0;entryDy=0;" edge="1" parent="1" source="MhhA_x5xzs-FYC7zyUvU-2" target="MhhA_x5xzs-FYC7zyUvU-1">
          <mxGeometry relative="1" as="geometry" />
        </mxCell>
        <mxCell id="MhhA_x5xzs-FYC7zyUvU-2" value="描述数据" style="rounded=1;whiteSpace=wrap;html=1;fillColor=#dae8fc;strokeColor=#6c8ebf;" vertex="1" parent="1">
          <mxGeometry x="10" y="500" width="100" height="60" as="geometry" />
        </mxCell>
        <mxCell id="MhhA_x5xzs-FYC7zyUvU-6" style="edgeStyle=orthogonalEdgeStyle;rounded=0;orthogonalLoop=1;jettySize=auto;html=1;exitX=0;exitY=0.75;exitDx=0;exitDy=0;entryX=1;entryY=0.75;entryDx=0;entryDy=0;" edge="1" parent="1" source="MhhA_x5xzs-FYC7zyUvU-3" target="MhhA_x5xzs-FYC7zyUvU-2">
          <mxGeometry relative="1" as="geometry" />
        </mxCell>
        <mxCell id="MhhA_x5xzs-FYC7zyUvU-3" value="描述数据" style="rounded=1;whiteSpace=wrap;html=1;fillColor=#dae8fc;strokeColor=#6c8ebf;" vertex="1" parent="1">
          <mxGeometry x="150" y="500" width="100" height="60" as="geometry" />
        </mxCell>
        <mxCell id="MhhA_x5xzs-FYC7zyUvU-9" style="edgeStyle=orthogonalEdgeStyle;rounded=0;orthogonalLoop=1;jettySize=auto;html=1;exitX=0;exitY=0.5;exitDx=0;exitDy=0;entryX=0.5;entryY=0;entryDx=0;entryDy=0;" edge="1" parent="1" source="MhhA_x5xzs-FYC7zyUvU-8" target="MhhA_x5xzs-FYC7zyUvU-1">
          <mxGeometry relative="1" as="geometry" />
        </mxCell>
        <mxCell id="MhhA_x5xzs-FYC7zyUvU-10" style="edgeStyle=orthogonalEdgeStyle;rounded=0;orthogonalLoop=1;jettySize=auto;html=1;exitX=1;exitY=0.5;exitDx=0;exitDy=0;entryX=0.5;entryY=0;entryDx=0;entryDy=0;" edge="1" parent="1" source="MhhA_x5xzs-FYC7zyUvU-8" target="MhhA_x5xzs-FYC7zyUvU-3">
          <mxGeometry relative="1" as="geometry" />
        </mxCell>
        <mxCell id="MhhA_x5xzs-FYC7zyUvU-8" value="基础节点" style="rounded=1;whiteSpace=wrap;html=1;fillColor=#f5f5f5;strokeColor=#666666;fontColor=#333333;" vertex="1" parent="1">
          <mxGeometry x="10" y="390" width="100" height="60" as="geometry" />
        </mxCell>
        <mxCell id="MhhA_x5xzs-FYC7zyUvU-12" value="开始节点" style="text;html=1;strokeColor=none;fillColor=none;align=center;verticalAlign=middle;whiteSpace=wrap;rounded=0;" vertex="1" parent="1">
          <mxGeometry x="-70" y="390" width="60" height="20" as="geometry" />
        </mxCell>
        <mxCell id="MhhA_x5xzs-FYC7zyUvU-13" value="结束节点" style="text;html=1;strokeColor=none;fillColor=none;align=center;verticalAlign=middle;whiteSpace=wrap;rounded=0;" vertex="1" parent="1">
          <mxGeometry x="124" y="390" width="60" height="20" as="geometry" />
        </mxCell>
        <mxCell id="MhhA_x5xzs-FYC7zyUvU-14" value="free链表" style="text;html=1;strokeColor=none;fillColor=none;align=center;verticalAlign=middle;whiteSpace=wrap;rounded=0;" vertex="1" parent="1">
          <mxGeometry x="425" y="360" width="70" height="20" as="geometry" />
        </mxCell>
        <mxCell id="MhhA_x5xzs-FYC7zyUvU-15" style="edgeStyle=orthogonalEdgeStyle;rounded=0;orthogonalLoop=1;jettySize=auto;html=1;exitX=1;exitY=0.25;exitDx=0;exitDy=0;entryX=0;entryY=0.25;entryDx=0;entryDy=0;" edge="1" parent="1" source="MhhA_x5xzs-FYC7zyUvU-16" target="MhhA_x5xzs-FYC7zyUvU-19">
          <mxGeometry relative="1" as="geometry" />
        </mxCell>
        <mxCell id="MhhA_x5xzs-FYC7zyUvU-16" value="描述数据" style="rounded=1;whiteSpace=wrap;html=1;fillColor=#dae8fc;strokeColor=#6c8ebf;" vertex="1" parent="1">
          <mxGeometry x="270" y="497.5" width="100" height="60" as="geometry" />
        </mxCell>
        <mxCell id="MhhA_x5xzs-FYC7zyUvU-17" style="edgeStyle=orthogonalEdgeStyle;rounded=0;orthogonalLoop=1;jettySize=auto;html=1;exitX=1;exitY=0.25;exitDx=0;exitDy=0;entryX=0;entryY=0.25;entryDx=0;entryDy=0;" edge="1" parent="1" source="MhhA_x5xzs-FYC7zyUvU-19" target="MhhA_x5xzs-FYC7zyUvU-21">
          <mxGeometry relative="1" as="geometry" />
        </mxCell>
        <mxCell id="MhhA_x5xzs-FYC7zyUvU-18" style="edgeStyle=orthogonalEdgeStyle;rounded=0;orthogonalLoop=1;jettySize=auto;html=1;exitX=0;exitY=0.75;exitDx=0;exitDy=0;entryX=1;entryY=0.75;entryDx=0;entryDy=0;" edge="1" parent="1" source="MhhA_x5xzs-FYC7zyUvU-19" target="MhhA_x5xzs-FYC7zyUvU-16">
          <mxGeometry relative="1" as="geometry" />
        </mxCell>
        <mxCell id="MhhA_x5xzs-FYC7zyUvU-19" value="描述数据" style="rounded=1;whiteSpace=wrap;html=1;fillColor=#dae8fc;strokeColor=#6c8ebf;" vertex="1" parent="1">
          <mxGeometry x="410" y="497.5" width="100" height="60" as="geometry" />
        </mxCell>
        <mxCell id="MhhA_x5xzs-FYC7zyUvU-20" style="edgeStyle=orthogonalEdgeStyle;rounded=0;orthogonalLoop=1;jettySize=auto;html=1;exitX=0;exitY=0.75;exitDx=0;exitDy=0;entryX=1;entryY=0.75;entryDx=0;entryDy=0;" edge="1" parent="1" source="MhhA_x5xzs-FYC7zyUvU-21" target="MhhA_x5xzs-FYC7zyUvU-19">
          <mxGeometry relative="1" as="geometry" />
        </mxCell>
        <mxCell id="MhhA_x5xzs-FYC7zyUvU-21" value="描述数据" style="rounded=1;whiteSpace=wrap;html=1;fillColor=#dae8fc;strokeColor=#6c8ebf;" vertex="1" parent="1">
          <mxGeometry x="550" y="497.5" width="100" height="60" as="geometry" />
        </mxCell>
        <mxCell id="MhhA_x5xzs-FYC7zyUvU-22" style="edgeStyle=orthogonalEdgeStyle;rounded=0;orthogonalLoop=1;jettySize=auto;html=1;exitX=0;exitY=0.5;exitDx=0;exitDy=0;entryX=0.5;entryY=0;entryDx=0;entryDy=0;" edge="1" parent="1" source="MhhA_x5xzs-FYC7zyUvU-24" target="MhhA_x5xzs-FYC7zyUvU-16">
          <mxGeometry relative="1" as="geometry" />
        </mxCell>
        <mxCell id="MhhA_x5xzs-FYC7zyUvU-23" style="edgeStyle=orthogonalEdgeStyle;rounded=0;orthogonalLoop=1;jettySize=auto;html=1;exitX=1;exitY=0.5;exitDx=0;exitDy=0;entryX=0.5;entryY=0;entryDx=0;entryDy=0;" edge="1" parent="1" source="MhhA_x5xzs-FYC7zyUvU-24" target="MhhA_x5xzs-FYC7zyUvU-21">
          <mxGeometry relative="1" as="geometry" />
        </mxCell>
        <mxCell id="MhhA_x5xzs-FYC7zyUvU-24" value="基础节点" style="rounded=1;whiteSpace=wrap;html=1;fillColor=#f5f5f5;strokeColor=#666666;fontColor=#333333;" vertex="1" parent="1">
          <mxGeometry x="410" y="387.5" width="100" height="60" as="geometry" />
        </mxCell>
        <mxCell id="MhhA_x5xzs-FYC7zyUvU-25" value="开始节点" style="text;html=1;strokeColor=none;fillColor=none;align=center;verticalAlign=middle;whiteSpace=wrap;rounded=0;" vertex="1" parent="1">
          <mxGeometry x="330" y="387.5" width="60" height="20" as="geometry" />
        </mxCell>
        <mxCell id="MhhA_x5xzs-FYC7zyUvU-26" value="结束节点" style="text;html=1;strokeColor=none;fillColor=none;align=center;verticalAlign=middle;whiteSpace=wrap;rounded=0;" vertex="1" parent="1">
          <mxGeometry x="524" y="387.5" width="60" height="20" as="geometry" />
        </mxCell>
        <mxCell id="MhhA_x5xzs-FYC7zyUvU-27" value="flush链表" style="text;html=1;strokeColor=none;fillColor=none;align=center;verticalAlign=middle;whiteSpace=wrap;rounded=0;" vertex="1" parent="1">
          <mxGeometry x="25" y="360" width="70" height="20" as="geometry" />
        </mxCell>
        <mxCell id="MhhA_x5xzs-FYC7zyUvU-31" value="Buffer Pool" style="text;html=1;strokeColor=none;fillColor=none;align=center;verticalAlign=middle;whiteSpace=wrap;rounded=0;" vertex="1" parent="1">
          <mxGeometry x="217.5" y="460" width="95" height="20" as="geometry" />
        </mxCell>
      </root>
    </mxGraphModel>
  </diagram>
</mxfile>
